<?xml version="1.0" encoding="UTF-8"?>
<svg xmlns="http://www.w3.org/2000/svg" xmlns:xlink="http://www.w3.org/1999/xlink" width="14pt" height="16pt" viewBox="0 0 14 16" version="1.1">
<g id="surface1">
<path style=" stroke:none;fill-rule:nonzero;fill:rgb(0%,0%,0%);fill-opacity:1;" d="M 12.730469 1 L 1.269531 1 C 0.570312 1 0 1.570312 0 2.269531 L 0 13.730469 C 0 14.429688 0.570312 15 1.269531 15 L 12.730469 15 C 13.429688 15 14 14.429688 14 13.730469 L 14 2.269531 C 14 1.570312 13.429688 1 12.730469 1 Z M 5.503906 4.550781 C 5.515625 5.28125 4.804688 5.402344 4.671875 5.40625 C 4.207031 5.40625 3.824219 5.03125 3.824219 4.5625 C 3.828125 3.460938 5.484375 3.453125 5.503906 4.550781 Z M 10.398438 11.78125 C 8.351562 11.78125 9.335938 9.46875 9.617188 8.449219 C 10.058594 7 8.207031 6.605469 7.746094 8.472656 L 6.941406 11.699219 L 5.53125 11.699219 L 5.785156 10.683594 C 4.800781 12.304688 2.828125 12.070312 2.828125 10.550781 C 2.832031 10.101562 2.855469 10.113281 3.546875 7.296875 L 2.554688 7.296875 L 2.855469 6.183594 L 5.242188 6.183594 C 4.195312 10.363281 4.226562 10.148438 4.214844 10.503906 C 4.214844 11.15625 5.492188 10.925781 6.007812 9.777344 L 6.628906 7.296875 L 5.617188 7.296875 L 5.921875 6.183594 L 8.070312 6.183594 L 7.792969 7.449219 C 9.058594 5.089844 11.789062 5.957031 10.976562 8.636719 C 10.53125 10.234375 10.519531 10.222656 10.507812 10.476562 C 10.507812 10.960938 11.054688 11.179688 11.503906 9.945312 L 12.0625 10.15625 C 11.734375 11.304688 11.144531 11.78125 10.398438 11.78125 Z M 10.398438 11.78125 "/>
</g>
</svg>
